<?xml version="1.0" encoding="utf-8"?>
<!-- Generator: Adobe Illustrator 19.2.0, SVG Export Plug-In . SVG Version: 6.00 Build 0)  -->
<svg version="1.1" id="Layer_1" xmlns="http://www.w3.org/2000/svg" xmlns:xlink="http://www.w3.org/1999/xlink" x="0px" y="0px"
	 viewBox="0 0 681.3 526.3" style="enable-background:new 0 0 681.3 526.3;" xml:space="preserve">
<style type="text/css">
	.st0{fill:#5B656C;}
	.st1{fill:#8797A3;}
	.st2{fill:#3E4A52;}
</style>
<g id="XMLID_2404_">
	<g id="XMLID_2876_">
		<g id="XMLID_2896_">
			<g id="XMLID_2933_">
				<polygon id="XMLID_2935_" class="st0" points="95.7,383.5 111.2,397.9 451.9,487.4 460.1,481.1 				"/>
				<polygon id="XMLID_2934_" class="st1" points="116.3,378.7 95.7,383.5 460.1,481.1 456.2,471.5 				"/>
			</g>
			<polygon id="XMLID_2932_" class="st2" points="494.8,500.5 490.4,489.4 521.1,497.6 525.5,508.7 			"/>
			<polygon id="XMLID_2931_" class="st0" points="490.4,489.4 486,478.3 516.6,486.5 521,497.6 			"/>
			<polygon id="XMLID_2930_" class="st2" points="529.8,509.9 525.4,498.8 556,507 560.5,518.1 			"/>
			<polygon id="XMLID_2929_" class="st0" points="525.4,498.8 521,487.7 551.6,495.9 556,507 			"/>
			<polygon id="XMLID_2928_" class="st0" points="466.8,483.1 485,488 480.6,476.9 460.6,471.5 			"/>
			<polygon id="XMLID_2927_" class="st2" points="455.6,490 489.5,499.1 485.1,488 466.8,483.1 			"/>
			<polygon id="XMLID_2926_" class="st2" points="569.6,510.6 560.2,508.1 564.6,519.2 568.4,515.1 			"/>
			<polygon id="XMLID_2925_" class="st0" points="570.8,506.1 555.8,496.9 560.2,508.1 569.6,510.6 			"/>
			<g id="XMLID_2922_">
				<path id="XMLID_2924_" class="st2" d="M127.7,392.7c-3.8,14.2-18.4,22.6-32.6,18.8S72.4,393.2,76.2,379L127.7,392.7z"/>
				<path id="XMLID_2923_" class="st0" d="M108.8,360.1c14.2,3.8,22.6,18.4,18.8,32.6L76.2,379C80,364.8,94.6,356.3,108.8,360.1z"/>
			</g>
			<g id="XMLID_2918_">
				<g id="XMLID_2919_">
					<polygon id="XMLID_2921_" class="st0" points="93.7,383.6 76.4,387.9 6.8,360.3 					"/>
					<polygon id="XMLID_2920_" class="st1" points="80.9,371.3 93.7,383.6 6.8,360.3 					"/>
				</g>
			</g>
			<g id="XMLID_2911_">
				<g id="XMLID_2915_">
					<polygon id="XMLID_2917_" class="st0" points="97.6,378.5 82.4,369.3 52.7,300.6 					"/>
					<polygon id="XMLID_2916_" class="st1" points="97.3,360.7 97.6,378.5 52.7,300.6 					"/>
				</g>
				<g id="XMLID_2912_">
					<polygon id="XMLID_2914_" class="st0" points="106.1,393.1 121.4,402.3 151.1,471.1 					"/>
					<polygon id="XMLID_2913_" class="st1" points="106.4,411 106.1,393.1 151.1,471.1 					"/>
				</g>
			</g>
			<g id="XMLID_2904_">
				<g id="XMLID_2908_">
					<polygon id="XMLID_2910_" class="st0" points="94.6,390 85.4,405.3 16.6,435 					"/>
					<polygon id="XMLID_2909_" class="st1" points="76.7,390.4 94.6,390 16.6,435 					"/>
				</g>
				<g id="XMLID_2905_">
					<polygon id="XMLID_2907_" class="st0" points="109.2,381.6 118.4,366.3 187.1,336.6 					"/>
					<polygon id="XMLID_2906_" class="st1" points="127,381.3 109.2,381.6 187.1,336.6 					"/>
				</g>
			</g>
			<g id="XMLID_2897_">
				<g id="XMLID_2901_">
					<polygon id="XMLID_2903_" class="st0" points="104.1,377.7 99.8,360.4 127.3,290.8 					"/>
					<polygon id="XMLID_2902_" class="st1" points="116.4,364.8 104.1,377.7 127.3,290.8 					"/>
				</g>
				<g id="XMLID_2898_">
					<polygon id="XMLID_2900_" class="st0" points="99.7,394 104,411.3 76.4,480.9 					"/>
					<polygon id="XMLID_2899_" class="st1" points="87.3,406.8 99.7,394 76.4,480.9 					"/>
				</g>
			</g>
		</g>
		<g id="XMLID_2877_">
			
				<rect id="XMLID_2895_" x="618.7" y="354.1" transform="matrix(0.2588 0.9659 -0.9659 0.2588 815.3621 -339.3786)" class="st2" width="20.3" height="15"/>
			<path id="XMLID_2894_" class="st1" d="M653.4,454.4c-15.4,4.1-30.9-3.7-34.6-17.4l17.1-47.9l38.8,33
				C678.3,435.8,668.8,450.3,653.4,454.4z"/>
			<g id="XMLID_2891_">
				<polygon id="XMLID_2893_" class="st0" points="636.8,382.8 616.2,378 276.3,470.9 272.4,480.4 				"/>
				<polygon id="XMLID_2892_" class="st1" points="621.3,397.2 636.8,382.8 272.4,480.4 280.6,486.8 				"/>
			</g>
			<polygon id="XMLID_2890_" class="st2" points="232.6,481 242,488.4 211.3,496.6 202,489.2 			"/>
			<polygon id="XMLID_2889_" class="st0" points="242,488.4 251.3,495.8 220.7,504 211.3,496.6 			"/>
			<polygon id="XMLID_2888_" class="st2" points="197.6,490.4 207,497.8 176.3,506 167,498.6 			"/>
			<polygon id="XMLID_2887_" class="st0" points="207,497.8 216.3,505.2 185.7,513.4 176.3,506 			"/>
			<polygon id="XMLID_2886_" class="st0" points="265.6,482.1 247.3,487 256.7,494.4 276.7,489 			"/>
			<polygon id="XMLID_2885_" class="st2" points="271.8,470.5 237.9,479.6 247.3,487 265.6,482.1 			"/>
			<polygon id="XMLID_2884_" class="st2" points="162.8,509.7 172.2,507.2 162.8,499.7 161.6,505.2 			"/>
			<polygon id="XMLID_2883_" class="st0" points="164,514.1 181.5,514.6 172.2,507.1 162.8,509.7 			"/>
			<path id="XMLID_2882_" class="st2" d="M614.2,388.9c-3-11.1,3.6-22.6,14.7-25.5c11.1-3,22.6,3.6,25.5,14.7L614.2,388.9z"/>
			<path id="XMLID_2881_" class="st0" d="M639.8,403.7c-11.1,3-22.6-3.6-25.5-14.7l40.3-10.8C657.5,389.2,650.9,400.7,639.8,403.7z"
				/>
			<path id="XMLID_2880_" class="st0" d="M650.1,442.1c-10.9,2.9-22.2-3.6-25.1-14.5l11.2-37.4l28.4,26.8
				C667.5,427.9,661,439.2,650.1,442.1z"/>
			<path id="XMLID_2879_" class="st2" d="M628.4,361.1c-9.6,2.6-19.6-3.2-22.1-12.9c0,0,7.4-54.7-7.9-99.2
				c31.2,42.1,42.8,89.9,42.8,89.9C643.7,348.5,638,358.5,628.4,361.1z"/>
			<path id="XMLID_2878_" class="st0" d="M629.2,357.7c-7.6,2-15.3-2.5-17.4-10.1c0,0,7-44.9-4.9-79.8
				c21.1,34.5,32.3,72.4,32.3,72.4C641.2,347.9,636.7,355.7,629.2,357.7z"/>
		</g>
	</g>
	<g id="XMLID_2407_">
		<g id="XMLID_2870_">
			<g id="XMLID_2871_">
				<g id="XMLID_2873_">
					<path id="XMLID_20_" class="st0" d="M364.9,291.2c0,0,40.9-22,66.9-15c0,25.3,13.9,38.7,61.4,38.7
						c0,59.8-43.7,102.7-128.3,118.2C364.9,308.6,364.9,291.2,364.9,291.2z"/>
				</g>
				<path id="XMLID_2872_" class="st2" d="M364.9,291.2c0,0-40.9-22-66.9-15c0,25.3-13.9,38.7-61.4,38.7
					c0,59.8,43.7,102.7,128.3,118.2C364.9,308.6,364.9,291.2,364.9,291.2z"/>
			</g>
		</g>
		<g id="XMLID_2408_">
			<g id="XMLID_2759_">
				<g id="XMLID_2819_">
					<g id="XMLID_2820_">
						<g id="XMLID_2864_">
							<path id="XMLID_2869_" class="st2" d="M356.8,62.1c0,0-8.5-23.7,36.8-34.5S482.4,57,526.8,50.2
								c-11.8,18.1-31.3,18.6-31.3,18.6s39.8,5.1,55.3-33.5c-37.8,15.2-52.3,5.6-79.5-9.7S414.8,6.5,388.6,13
								C362.5,19.6,339.8,39.9,356.8,62.1z"/>
							<path id="XMLID_2868_" class="st2" d="M470.7,71.8c0,0,64.2,12.9,117.4-32.7c16.5,50.7-6.6,107.4-60.5,121.6
								s-74-18.8-81.4-25c-7.4-6.3-30.1-45.5-68-52.7c41.6,4.3,48.9,20.3,80.1,45s56,16,62.4,13.7c6.4-2.3,41.3-11.5,46.2-69.8
								C526.6,89.4,505,91.3,470.7,71.8z"/>
							<path id="XMLID_2867_" class="st2" d="M352.2,83.5c0,0-30.1-27-0.2-61C315.6,47.1,321.5,75.7,352.2,83.5z"/>
							<path id="XMLID_2866_" class="st1" d="M375.4,70.3c0,0,1.4-16,24.7-19.2c34.8-4.7,70.7,25.7,109.7,5.4
								c-50.8,1.9-69.1-16.8-98.1-21.7C391.1,31.3,354,44.2,375.4,70.3z"/>
							<path id="XMLID_2865_" class="st1" d="M392.7,75.9c0,0,13.4-6.7,40.8,10.8c27.4,17.5,45.2,34.5,80.7,27.5
								c28.9-5.7,34.4-25.5,34.4-25.5s-38.8,30.5-86.9-5.6S389.6,66.5,392.7,75.9z"/>
						</g>
						<g id="XMLID_2861_">
							<path id="XMLID_2863_" class="st2" d="M365.4,115.2c0,0-68.2-6-88.3,76.5c-9,40.2,3.8,70,8.1,85.5
								c5.5,13.4,23.4,41.6,80.2,46.4c-56.3-32.4-73.8-81.3-73.8-119.8c0-9.9,73.8-13,73.8-13V115.2z"/>
							<path id="XMLID_2862_" class="st0" d="M365.2,115.2c0,0,68.2-6,88.3,76.5c9,40.2-3.8,70-8.1,85.5
								c-5.5,13.4-20,41.6-76.8,46.4c56.3-32.4,70.4-81.3,70.4-119.8c0-9.9-73.8-13-73.8-13V115.2z"/>
						</g>
						<g id="XMLID_2825_">
							<path id="XMLID_2855_" class="st1" d="M454,180.4c0,0-0.2,4.8,0.7,18.1c0,0-20.7,18.1-89.4,18.1V231c2.1,0,3.9,1.4,3.9,3.1
								v47.1c0,1.7-1.7,3.1-3.9,3.1c0,30.2,0,55.6,0,55.6s56.2-22.8,84-94.1c2.8-7.3,4.5-1.4,4.5-1.4s10.4-8.2,10.4-35.4
								S454,180.4,454,180.4z M385.2,275.9c0,1.6-1.8,2.8-3.9,2.8c-2.2,0-3.9-1.3-3.9-2.8v-43.7c0-1.6,1.8-2.8,3.9-2.8
								c2.2,0,3.9,1.3,3.9,2.8V275.9z M400.2,265c0,1.6-1.8,2.8-3.9,2.8s-3.9-1.3-3.9-2.8v-34.5c0-1.6,1.8-2.8,3.9-2.8
								s3.9,1.3,3.9,2.8V265z M413,254.8c0,1.4-1.6,2.5-3.5,2.5s-3.5-1.1-3.5-2.5v-27.2c0-1.4,1.6-2.5,3.5-2.5s3.5,1.1,3.5,2.5
								V254.8z M424.5,244c0,1.2-1.4,2.2-3.1,2.2s-3.1-1-3.1-2.2v-18.9c0-1.2,1.4-2.2,3.1-2.2s3.1,1,3.1,2.2V244z"/>
							<path id="XMLID_2827_" class="st0" d="M361.4,281.2v-47.1c0-1.7,1.7-3.1,3.9-3.1v-14.3c-68.7,0-89.4-18.1-89.4-18.1
								c0.9-13.4,0.7-18.1,0.7-18.1s-10.2,1.3-10.2,28.5s10.4,35.4,10.4,35.4s1.6-6.1,4.4,1.1c27.8,71.6,84.1,94.4,84.1,94.4
								s0-25.4,0-55.6C363.2,284.2,361.4,282.9,361.4,281.2z M312.2,244c0,1.2-1.4,2.2-3.1,2.2c-1.7,0-3.1-1-3.1-2.2v-18.9
								c0-1.2,1.4-2.2,3.1-2.2c1.7,0,3.1,1,3.1,2.2V244z M324.5,254.8c0,1.4-1.6,2.5-3.5,2.5s-3.5-1.1-3.5-2.5v-27.2
								c0-1.4,1.6-2.5,3.5-2.5s3.5,1.1,3.5,2.5V254.8z M338.3,265c0,1.6-1.8,2.8-3.9,2.8s-3.9-1.3-3.9-2.8v-34.5
								c0-1.6,1.8-2.8,3.9-2.8s3.9,1.3,3.9,2.8V265z M353.3,275.9c0,1.6-1.8,2.8-3.9,2.8c-2.2,0-3.9-1.3-3.9-2.8v-43.7
								c0-1.6,1.8-2.8,3.9-2.8c2.2,0,3.9,1.3,3.9,2.8V275.9z"/>
						</g>
					</g>
				</g>
			</g>
			<g id="XMLID_2409_">
				<polygon id="XMLID_2758_" class="st2" points="365.2,112.9 349.9,96.1 365.2,69.1 				"/>
				<polygon id="XMLID_2413_" class="st1" points="365.2,112.9 365.2,69.1 380.4,96.1 				"/>
				<polygon id="XMLID_2411_" class="st1" points="383,118.6 365.2,86.2 365.2,123.9 				"/>
				<polygon id="XMLID_2410_" class="st2" points="365.2,123.9 365.2,86.2 347.3,118.6 				"/>
			</g>
		</g>
	</g>
</g>
</svg>
