<?xml version="1.0" encoding="utf-8"?>
<!-- Generator: Adobe Illustrator 19.2.0, SVG Export Plug-In . SVG Version: 6.00 Build 0)  -->
<svg version="1.1" id="Layer_1" xmlns="http://www.w3.org/2000/svg" xmlns:xlink="http://www.w3.org/1999/xlink" x="0px" y="0px"
	 viewBox="0 0 1380.4 275.2" style="enable-background:new 0 0 1380.4 275.2;" xml:space="preserve">
<style type="text/css">
	.st0{fill:#3E4A52;}
	.st1{fill:#8797A3;}
	.st2{fill:#5B656C;}
</style>
<path id="XMLID_2258_" class="st0" d="M372.8,164c-3.2-3.3-7.1-6-11.6-7.9c-4.5-1.9-9.6-2.9-15.2-2.9h-10c-7,0-13.4,1.8-19,5.5
	c-4.3,2.8-7.9,6.5-10.7,11c-2.6-4.3-6-7.9-10.1-10.8c-5.5-3.8-12.2-5.7-20-5.7h-10.4c-5.1,0-10,0.9-14.5,2.8
	c-4.5,1.8-8.5,4.5-11.8,7.8c-3.3,3.3-6,7.4-7.8,12c-1.8,4.6-2.8,9.7-2.8,15.2v46.4h16.4v-46.5c0-3.4,0.6-6.5,1.6-9.3
	c1.1-2.8,2.6-5.3,4.5-7.3c1.9-2,4.2-3.6,6.9-4.7c2.7-1.1,5.8-1.7,9.2-1.7h8c3.2,0,6.2,0.6,8.9,1.8c2.7,1.2,5,2.8,7,4.9
	c2,2.1,3.5,4.6,4.6,7.6c1.1,2.9,1.7,6.2,1.7,9.7v45.7h16.4v-45c0-3.6,0.6-6.9,1.7-9.9c1.1-3,2.7-5.6,4.7-7.8c1.9-2.2,4.3-3.9,7-5.1
	c2.6-1.2,5.5-1.8,8.6-1.8h8.1c3.3,0,6.4,0.6,9.1,1.7c2.7,1.1,5,2.7,6.9,4.7c1.9,2.1,3.4,4.5,4.5,7.3c1.1,2.8,1.6,5.9,1.6,9.3v46.5
	h16.4v-46.4c0-5.3-0.9-10.4-2.6-14.9C378.5,171.3,376,167.3,372.8,164z M1364,120.2v33h-48.6c-4.8,0-9.4,0.9-13.8,2.8
	c-4.3,1.8-8.1,4.4-11.4,7.7c-3.3,3.3-5.9,7.2-7.8,11.6c-1.9,4.4-2.9,9.4-2.9,14.6v10.7c0,5.4,1.1,10.4,3.2,15
	c2.1,4.5,4.9,8.4,8.2,11.6c3.4,3.2,7.2,5.7,11.5,7.5c4.3,1.8,8.6,2.7,13,2.7h29.4c4.7,0,9.2-0.9,13.5-2.7c4.2-1.8,8.1-4.3,11.3-7.5
	c3.3-3.2,5.9-7.1,7.9-11.6c2-4.5,3-9.5,3-14.9v-80.4H1364z M1364,199.4c0,3.4-0.6,6.6-1.8,9.5c-1.2,2.9-2.8,5.4-4.8,7.4
	c-2,2-4.4,3.7-7,4.8c-2.7,1.1-5.5,1.7-8.3,1.7h-24c-2.9,0-5.6-0.6-8.2-1.7c-2.6-1.1-5-2.7-7-4.8c-2-2.1-3.7-4.6-4.9-7.5
	c-1.2-2.8-1.9-6-1.9-9.4v-8.6c0-3.3,0.6-6.5,1.8-9.3c1.2-2.8,2.8-5.3,4.8-7.3c2-2,4.4-3.6,7-4.7c2.6-1.1,5.4-1.7,8.4-1.7h46V199.4z
	 M171.2,155.9c-4.4,1.8-8.3,4.3-11.6,7.6c-3.3,3.3-6,7.3-8,11.9c-2,4.6-3,9.8-3,15.4v46.5h16.4v-14.5h0l0.2-31.5
	c0-3.6,0.6-6.8,1.8-9.7c1.2-2.9,2.8-5.4,4.8-7.4c2-2.1,4.3-3.7,6.9-4.8c2.5-1.1,5.3-1.7,8.1-1.7h34.6v-14.5H185
	C180.2,153.2,175.6,154.1,171.2,155.9z M487.1,163.2c-3.4-3.2-7.2-5.7-11.5-7.4c-4.3-1.7-8.6-2.6-12.9-2.6H435
	c-4.3,0-8.7,0.9-13,2.6c-4.3,1.7-8.2,4.2-11.7,7.4c-3.4,3.2-6.3,7.1-8.4,11.5c-2.2,4.5-3.3,9.6-3.3,15v11.1c0,5.4,1.1,10.4,3.2,14.9
	c2.1,4.4,4.8,8.3,8.1,11.4c3.3,3.2,7.1,5.7,11.4,7.5c4.3,1.8,8.6,2.7,13,2.7h28.5c4.3,0,8.7-0.9,13-2.7c4.2-1.8,8.1-4.3,11.4-7.5
	c3.3-3.2,6.1-7.1,8.1-11.5c2.1-4.5,3.2-9.5,3.2-15v-10.9c0-5.4-1.1-10.4-3.2-15C493.2,170.3,490.5,166.4,487.1,163.2z M482.1,199.9
	c0,3.3-0.6,6.4-1.9,9.1c-1.3,2.8-3,5.3-5.1,7.3c-2.1,2-4.5,3.6-7.1,4.8c-2.6,1.1-5.3,1.7-7.9,1.7h-23c-2.6,0-5.3-0.6-7.9-1.7
	c-2.6-1.1-5-2.7-7.1-4.8c-2.1-2-3.8-4.5-5.1-7.3c-1.3-2.8-1.9-5.8-1.9-9.1v-9.3c0-3.4,0.6-6.6,1.9-9.3c1.3-2.8,3-5.3,5.1-7.3
	c2.1-2,4.4-3.6,7.1-4.7c2.6-1.1,5.3-1.6,7.9-1.6h23c2.8,0,5.5,0.5,8.1,1.6c2.6,1.1,5,2.6,7.1,4.7c2.1,2,3.7,4.5,5,7.3
	c1.2,2.8,1.9,5.9,1.9,9.3V199.9z M62.9,120L0,237.3h19l13.5-25.4l106.9,0L90.6,120H62.9z M39.9,197l32.6-61.8h8.2l32.4,61.8H39.9z
	 M1130.4,155.9c-4.4,1.8-8.3,4.3-11.6,7.6c-3.3,3.3-6,7.3-8,11.9c-2,4.6-3,9.8-3,15.4v46.5h16.4v-14.5h0l0.2-31.5
	c0-3.6,0.6-6.8,1.8-9.7c1.2-2.9,2.8-5.4,4.8-7.4c2-2.1,4.3-3.7,6.9-4.8c2.5-1.1,5.3-1.7,8.1-1.7h34.6v-14.5h-36.5
	C1139.5,153.2,1134.8,154.1,1130.4,155.9z M1086.7,163.2c-3.4-3.2-7.2-5.7-11.5-7.4c-4.3-1.7-8.6-2.6-12.9-2.6h-27.6
	c-4.3,0-8.7,0.9-13,2.6c-4.3,1.7-8.2,4.2-11.7,7.4c-3.4,3.2-6.3,7.1-8.4,11.5c-2.2,4.5-3.3,9.6-3.3,15v11.1c0,5.4,1.1,10.4,3.2,14.9
	c2.1,4.4,4.8,8.3,8.1,11.4c3.3,3.2,7.1,5.7,11.4,7.5c4.3,1.8,8.6,2.7,13,2.7h28.5c4.3,0,8.7-0.9,13-2.7c4.2-1.8,8.1-4.3,11.4-7.5
	c3.3-3.2,6.1-7.1,8.1-11.5c2.1-4.5,3.2-9.5,3.2-15v-10.9c0-5.4-1.1-10.4-3.2-15C1092.8,170.3,1090.1,166.4,1086.7,163.2z
	 M1081.7,199.9c0,3.3-0.6,6.4-1.9,9.1c-1.3,2.8-3,5.3-5.1,7.3c-2.1,2-4.5,3.6-7.1,4.8c-2.6,1.1-5.3,1.7-7.9,1.7h-23
	c-2.6,0-5.3-0.6-7.9-1.7c-2.6-1.1-5-2.7-7.1-4.8c-2.1-2-3.8-4.5-5.1-7.3c-1.3-2.8-1.9-5.8-1.9-9.1v-9.3c0-3.4,0.6-6.6,1.9-9.3
	c1.3-2.8,3-5.3,5.1-7.3c2.1-2,4.4-3.6,7.1-4.7c2.6-1.1,5.3-1.6,7.9-1.6h23c2.8,0,5.5,0.5,8.1,1.6c2.6,1.1,5,2.6,7.1,4.7
	c2.1,2,3.7,4.5,5,7.3c1.2,2.8,1.9,5.9,1.9,9.3V199.9z M530.8,155.9c-4.4,1.8-8.3,4.3-11.6,7.6c-3.3,3.3-6,7.3-8,11.9
	c-2,4.6-3,9.8-3,15.4v46.5h16.4v-14.5h0l0.2-31.5c0-3.6,0.6-6.8,1.8-9.7c1.2-2.9,2.8-5.4,4.8-7.4c2-2.1,4.3-3.7,6.9-4.8
	c2.5-1.1,5.3-1.7,8.1-1.7h34.6v-14.5h-36.5C539.9,153.2,535.2,154.1,530.8,155.9z M1220.1,221c-2.9-1.1-5.4-2.8-7.5-4.8
	c-2.1-2.1-3.8-4.5-5.1-7.3c-1.2-2.8-1.9-5.9-1.9-9.2v-79.5h-16.4v80.2c0,5.3,1,10.3,3.1,14.8c2,4.5,4.8,8.4,8.2,11.7
	c3.4,3.3,7.5,5.8,12,7.7c4.5,1.8,9.4,2.8,14.4,2.8h47.4v-14.5h-44.6C1226.2,222.8,1223,222.2,1220.1,221z M621.7,221.1
	c-2.7-1.1-5.1-2.6-7.2-4.6c-2.1-2-3.8-4.5-5.1-7.4c-1.3-2.9-1.9-6.1-1.9-9.7v-46.2h-16.4v46.5c0,5.6,1,10.8,3,15.4
	c2,4.6,4.7,8.6,8.1,11.9c3.4,3.3,7.3,5.8,11.8,7.6c4.4,1.8,9.2,2.7,14.1,2.7h46.9v3c0,2.7-0.5,5.4-1.6,7.8c-1.1,2.5-2.6,4.6-4.4,6.5
	c-1.8,1.8-4,3.3-6.4,4.3c-2.4,1-5.1,1.5-8,1.5h-41v14.8h42c4.9,0,9.6-0.9,14-2.6c4.4-1.7,8.2-4.2,11.5-7.4c3.2-3.2,5.8-7,7.7-11.4
	c1.9-4.4,2.9-9.4,2.9-14.6v-16.5h-61C627.4,222.8,624.4,222.2,621.7,221.1z M981.7,120L944,215.7l-36.7-90.5l-20.7,6.6l-34.1,83.7
	l-13.9-32.1l-7.1,25l12.1,28.7h17l37.5-91.9l37.5,91.9h17.2l48-117.1H981.7z"/>
<g id="XMLID_2348_">
	<g id="XMLID_2354_">
		<g id="XMLID_2355_">
			<g id="XMLID_2356_">
				<g id="XMLID_2373_">
					<path id="XMLID_2378_" class="st0" d="M751.3,41.6c0,0-6.8-19,29.4-27.6s71,23.5,106.5,18.1c-9.5,14.5-25,14.9-25,14.9
						s31.8,4.1,44.2-26.8c-30.2,12.2-41.8,4.5-63.5-7.7S797.6-2.8,776.7,2.4C755.9,7.7,737.7,23.9,751.3,41.6z"/>
					<path id="XMLID_2377_" class="st0" d="M842.3,49.4c0,0,51.3,10.3,93.8-26.2c13.2,40.5-5.3,85.9-48.3,97.2
						c-43.1,11.3-59.2-15-65-20s-24-36.4-54.4-42.1c33.3,3.4,39.1,16.2,64,35.9c24.9,19.8,44.8,12.8,49.9,10.9
						c5.1-1.8,33-9.2,37-55.7C887,63.5,869.7,65,842.3,49.4z"/>
					<path id="XMLID_2376_" class="st0" d="M747.6,58.7c0,0-24.1-21.6-0.1-48.8C718.4,29.6,723.1,52.5,747.6,58.7z"/>
					<path id="XMLID_2375_" class="st1" d="M766.1,48.2c0,0,1.1-12.8,19.8-15.3c27.8-3.8,56.5,20.6,87.6,4.3
						c-40.6,1.6-55.2-13.4-78.4-17.3C778.7,17,749,27.4,766.1,48.2z"/>
					<path id="XMLID_2374_" class="st1" d="M780,52.6c0,0,10.7-5.4,32.6,8.6s36.1,27.6,64.5,22c23.1-4.5,27.5-20.4,27.5-20.4
						s-31,24.3-69.5-4.5C796.7,29.5,777.5,45.2,780,52.6z"/>
				</g>
				<g id="XMLID_2370_">
					<path id="XMLID_2372_" class="st0" d="M758.2,84.1c0,0-54.5-4.8-70.5,61.1c-7.2,32.1,3.1,55.9,6.5,68.3
						c4.4,10.7,18.7,33.3,64.1,37.1c-45-25.9-59-65-59-95.7c0-7.9,59-10.4,59-10.4V84.1z"/>
					<path id="XMLID_2371_" class="st2" d="M758,84.1c0,0,54.5-4.8,70.5,61.1c7.2,32.1-3.1,55.9-6.5,68.3
						c-4.4,10.7-16,33.3-61.3,37.1c45-25.9,56.2-65,56.2-95.7c0-7.9-59-10.4-59-10.4V84.1z"/>
				</g>
				<g id="XMLID_2357_">
					<path id="XMLID_2364_" class="st1" d="M829,136.2c0,0-0.2,3.8,0.5,14.5c0,0-16.6,14.5-71.5,14.5v11.4c1.7,0,3.1,1.1,3.1,2.4
						v37.6c0,1.3-1.4,2.4-3.1,2.4c0,24.1,0,44.4,0,44.4s44.9-18.2,67.1-75.2c2.3-5.8,3.6-1.1,3.6-1.1s8.3-6.6,8.3-28.3
						S829,136.2,829,136.2z M774,212.5c0,1.3-1.4,2.3-3.1,2.3c-1.7,0-3.1-1-3.1-2.3v-34.9c0-1.3,1.4-2.3,3.1-2.3
						c1.7,0,3.1,1,3.1,2.3V212.5z M786,203.8c0,1.3-1.4,2.3-3.1,2.3c-1.7,0-3.1-1-3.1-2.3v-27.6c0-1.3,1.4-2.3,3.1-2.3
						c1.7,0,3.1,1,3.1,2.3V203.8z M796.2,195.6c0,1.1-1.3,2-2.8,2c-1.5,0-2.8-0.9-2.8-2v-21.7c0-1.1,1.3-2,2.8-2
						c1.5,0,2.8,0.9,2.8,2V195.6z M805.4,187c0,1-1.1,1.8-2.5,1.8s-2.5-0.8-2.5-1.8v-15.1c0-1,1.1-1.8,2.5-1.8s2.5,0.8,2.5,1.8V187z
						"/>
					<path id="XMLID_2358_" class="st2" d="M755,216.7v-37.6c0-1.3,1.4-2.4,3.1-2.4v-11.4c-54.9,0-71.5-14.5-71.5-14.5
						c0.7-10.7,0.5-14.5,0.5-14.5s-8.1,1-8.1,22.8s8.3,28.3,8.3,28.3s1.3-4.9,3.5,0.9c22.2,57.2,67.2,75.4,67.2,75.4s0-20.3,0-44.4
						C756.4,219.2,755,218.1,755,216.7z M715.7,187c0,1-1.1,1.8-2.5,1.8c-1.4,0-2.5-0.8-2.5-1.8v-15.1c0-1,1.1-1.8,2.5-1.8
						c1.3,0,2.5,0.8,2.5,1.8V187z M725.5,195.6c0,1.1-1.3,2-2.8,2c-1.5,0-2.8-0.9-2.8-2v-21.7c0-1.1,1.2-2,2.8-2
						c1.5,0,2.8,0.9,2.8,2V195.6z M736.5,203.8c0,1.3-1.4,2.3-3.1,2.3c-1.7,0-3.1-1-3.1-2.3v-27.6c0-1.3,1.4-2.3,3.1-2.3
						c1.7,0,3.1,1,3.1,2.3V203.8z M748.5,212.5c0,1.3-1.4,2.3-3.1,2.3c-1.7,0-3.1-1-3.1-2.3v-34.9c0-1.3,1.4-2.3,3.1-2.3
						c1.7,0,3.1,1,3.1,2.3V212.5z"/>
				</g>
			</g>
		</g>
	</g>
	<g id="XMLID_2349_">
		<polygon id="XMLID_2353_" class="st0" points="758,82.3 745.8,68.8 758,47.2 		"/>
		<polygon id="XMLID_2352_" class="st1" points="758,82.3 758,47.2 770.1,68.8 		"/>
		<polygon id="XMLID_2351_" class="st1" points="772.2,86.8 758,60.9 758,91.1 		"/>
		<polygon id="XMLID_2350_" class="st0" points="758,91.1 758,60.9 743.7,86.8 		"/>
	</g>
</g>
</svg>
