<?xml version="1.0" encoding="utf-8"?>
<!-- Generator: Adobe Illustrator 19.2.0, SVG Export Plug-In . SVG Version: 6.00 Build 0)  -->
<svg version="1.1" id="Layer_1" xmlns="http://www.w3.org/2000/svg" xmlns:xlink="http://www.w3.org/1999/xlink" x="0px" y="0px"
	 viewBox="0 0 356.8 441.2" style="enable-background:new 0 0 356.8 441.2;" xml:space="preserve">
<style type="text/css">
	.st0{fill:#5B656C;}
	.st1{fill:#3E4A52;}
	.st2{fill:#8797A3;}
</style>
<g id="XMLID_2999_">
	<g id="XMLID_3000_">
		<g id="XMLID_3032_">
			<g id="XMLID_3033_">
				<g id="XMLID_3035_">
					<path id="XMLID_33_" class="st0" d="M128.3,299.3c0,0,40.9-22,66.9-15c0,25.3,13.9,38.7,61.4,38.7
						c0,59.8-43.7,102.7-128.3,118.2C128.3,316.7,128.3,299.3,128.3,299.3z"/>
				</g>
				<path id="XMLID_3034_" class="st1" d="M128.3,299.3c0,0-40.9-22-66.9-15C61.4,309.7,47.4,323,0,323
					c0,59.8,43.7,102.7,128.3,118.2C128.3,316.7,128.3,299.3,128.3,299.3z"/>
			</g>
		</g>
		<g id="XMLID_3001_">
			<g id="XMLID_3007_">
				<g id="XMLID_3008_">
					<g id="XMLID_3009_">
						<g id="XMLID_3026_">
							<path id="XMLID_3031_" class="st1" d="M120.2,70.2c0,0-8.5-23.7,36.8-34.5s88.9,29.4,133.2,22.6
								C278.4,76.5,258.9,77,258.9,77s39.8,5.1,55.3-33.5c-37.8,15.2-52.3,5.6-79.5-9.7c-27.2-15.2-56.6-19.2-82.7-12.6
								S103.3,48,120.2,70.2z"/>
							<path id="XMLID_3030_" class="st1" d="M234.2,79.9c0,0,64.2,12.9,117.4-32.7c16.5,50.7-6.6,107.4-60.5,121.6
								s-74-18.8-81.4-25c-7.4-6.3-30.1-45.5-68-52.7c41.6,4.3,48.9,20.3,80.1,45s56,16,62.4,13.7c6.4-2.3,41.3-11.5,46.2-69.8
								C290.1,97.5,268.4,99.4,234.2,79.9z"/>
							<path id="XMLID_3029_" class="st1" d="M115.6,91.6c0,0-30.1-27-0.2-61C79,55.2,85,83.8,115.6,91.6z"/>
							<path id="XMLID_3028_" class="st2" d="M138.8,78.4c0,0,1.4-16,24.7-19.2c34.8-4.7,70.7,25.7,109.7,5.4
								c-50.8,1.9-69.1-16.8-98.1-21.7C154.5,39.5,117.4,52.4,138.8,78.4z"/>
							<path id="XMLID_3027_" class="st2" d="M156.1,84c0,0,13.4-6.7,40.8,10.8s45.2,34.5,80.7,27.5c28.9-5.7,34.4-25.5,34.4-25.5
								s-38.8,30.5-86.9-5.6S153,74.7,156.1,84z"/>
						</g>
						<g id="XMLID_3023_">
							<path id="XMLID_3025_" class="st1" d="M128.8,123.4c0,0-68.2-6-88.3,76.5c-9,40.2,3.8,70,8.1,85.5
								c5.5,13.4,23.4,41.6,80.2,46.4c-56.3-32.4-73.8-81.3-73.8-119.8c0-9.9,73.8-13,73.8-13V123.4z"/>
							<path id="XMLID_3024_" class="st0" d="M128.6,123.4c0,0,68.2-6,88.3,76.5c9,40.2-3.8,70-8.1,85.5
								c-5.5,13.4-20,41.6-76.8,46.4c56.3-32.4,70.4-81.3,70.4-119.8c0-9.9-73.8-13-73.8-13V123.4z"/>
						</g>
						<g id="XMLID_3010_">
							<path id="XMLID_3017_" class="st2" d="M217.5,188.6c0,0-0.2,4.8,0.7,18.1c0,0-20.7,18.1-89.4,18.1v14.3
								c2.1,0,3.9,1.4,3.9,3.1v47.1c0,1.7-1.7,3.1-3.9,3.1c0,30.2,0,55.6,0,55.6s56.2-22.8,84-94.1c2.8-7.3,4.5-1.4,4.5-1.4
								s10.4-8.2,10.4-35.4S217.5,188.6,217.5,188.6z M148.6,284.1c0,1.6-1.8,2.8-3.9,2.8c-2.2,0-3.9-1.3-3.9-2.8v-43.7
								c0-1.6,1.8-2.8,3.9-2.8c2.2,0,3.9,1.3,3.9,2.8V284.1z M163.6,273.1c0,1.6-1.8,2.8-3.9,2.8c-2.2,0-3.9-1.3-3.9-2.8v-34.5
								c0-1.6,1.8-2.8,3.9-2.8c2.2,0,3.9,1.3,3.9,2.8V273.1z M176.4,262.9c0,1.4-1.6,2.5-3.5,2.5s-3.5-1.1-3.5-2.5v-27.2
								c0-1.4,1.6-2.5,3.5-2.5s3.5,1.1,3.5,2.5V262.9z M187.9,252.1c0,1.2-1.4,2.2-3.1,2.2c-1.7,0-3.1-1-3.1-2.2v-18.9
								c0-1.2,1.4-2.2,3.1-2.2c1.7,0,3.1,1,3.1,2.2V252.1z"/>
							<path id="XMLID_3011_" class="st0" d="M124.9,289.3v-47.1c0-1.7,1.7-3.1,3.9-3.1v-14.3c-68.7,0-89.4-18.1-89.4-18.1
								c0.9-13.4,0.7-18.1,0.7-18.1s-10.2,1.3-10.2,28.5s10.4,35.4,10.4,35.4s1.6-6.1,4.4,1.1c27.8,71.6,84.1,94.4,84.1,94.4
								s0-25.4,0-55.6C126.6,292.4,124.9,291,124.9,289.3z M75.6,252.1c0,1.2-1.4,2.2-3.1,2.2c-1.7,0-3.1-1-3.1-2.2v-18.9
								c0-1.2,1.4-2.2,3.1-2.2c1.7,0,3.1,1,3.1,2.2V252.1z M87.9,262.9c0,1.4-1.6,2.5-3.5,2.5s-3.5-1.1-3.5-2.5v-27.2
								c0-1.4,1.6-2.5,3.5-2.5s3.5,1.1,3.5,2.5V262.9z M101.7,273.1c0,1.6-1.8,2.8-3.9,2.8c-2.2,0-3.9-1.3-3.9-2.8v-34.5
								c0-1.6,1.8-2.8,3.9-2.8c2.2,0,3.9,1.3,3.9,2.8V273.1z M116.7,284.1c0,1.6-1.8,2.8-3.9,2.8c-2.2,0-3.9-1.3-3.9-2.8v-43.7
								c0-1.6,1.8-2.8,3.9-2.8c2.2,0,3.9,1.3,3.9,2.8V284.1z"/>
						</g>
					</g>
				</g>
			</g>
			<g id="XMLID_3002_">
				<polygon id="XMLID_3006_" class="st1" points="128.6,121 113.4,104.2 128.6,77.2 				"/>
				<polygon id="XMLID_3005_" class="st2" points="128.6,121 128.6,77.2 143.8,104.2 				"/>
				<polygon id="XMLID_3004_" class="st2" points="146.4,126.7 128.6,94.4 128.6,132.1 				"/>
				<polygon id="XMLID_3003_" class="st1" points="128.6,132.1 128.6,94.4 110.7,126.7 				"/>
			</g>
		</g>
	</g>
</g>
</svg>
